<svg viewBox="0 0 313 313" xmlns="http://www.w3.org/2000/svg">
    <path d="M304.676 55.9644C302.291 54.6775 299.586 54 296.833 54C294.079 54 291.374 54.6775 288.989 55.9644L172.121 129.278V68.8676C172.114 66.2151 171.336 63.6141 169.872 61.3419C168.408 59.0696 166.312 57.2111 163.807 55.9644C161.422 54.6775 158.717 54 155.964 54C153.21 54 150.505 54.6775 148.12 55.9644L6.93736 143.941C4.80199 145.282 3.05233 147.094 1.84255 149.216C0.63277 151.338 0 153.706 0 156.111C0 158.516 0.63277 160.884 1.84255 163.006C3.05233 165.128 4.80199 166.94 6.93736 168.281L148.12 256.257C150.412 257.538 153.015 258.25 155.683 258.327C158.351 258.405 160.996 257.844 163.368 256.699C165.74 255.554 167.76 253.862 169.237 251.783C170.713 249.705 171.598 247.308 171.807 244.82V184.263L288.675 257.577C291.079 259.059 293.873 259.894 296.751 259.991C299.629 260.087 302.48 259.441 304.991 258.124C307.502 256.806 309.577 254.868 310.988 252.521C312.399 250.175 313.092 247.511 312.99 244.82V68.8676C312.983 66.2151 312.205 63.6141 310.741 61.3419C309.277 59.0696 307.181 57.2111 304.676 55.9644Z"/>
</svg>
