<svg viewBox="0 0 313 313" xmlns="http://www.w3.org/2000/svg">
    <path d="M8.32385 257.036C10.7086 258.322 13.4137 259 16.1674 259C18.921 259 21.6261 258.322 24.0108 257.036L140.879 183.722L140.879 244.132C140.886 246.785 141.664 249.386 143.128 251.658C144.592 253.93 146.688 255.789 149.193 257.036C151.578 258.322 154.283 259 157.036 259C159.79 259 162.495 258.322 164.88 257.036L306.063 169.059C308.198 167.718 309.948 165.906 311.157 163.784C312.367 161.662 313 159.294 313 156.889C313 154.484 312.367 152.116 311.157 149.994C309.948 147.872 308.198 146.06 306.063 144.719L164.88 56.7426C162.588 55.4623 159.985 54.7499 157.317 54.6726C154.649 54.5953 152.004 55.1557 149.632 56.3009C147.26 57.4461 145.24 59.1381 143.763 61.2168C142.287 63.2954 141.402 65.6919 141.193 68.1795L141.193 128.737L24.3246 55.4229C21.9207 53.9408 19.1267 53.1058 16.2488 53.0094C13.3709 52.913 10.5201 53.5589 8.00883 54.8764C5.4976 56.1939 3.42285 58.1321 2.01189 60.4787C0.600942 62.8252 -0.0917374 65.4894 0.00975917 68.1795L0.00974378 244.132C0.0173158 246.785 0.794566 249.386 2.25869 251.658C3.72281 253.93 5.81897 255.789 8.32385 257.036Z" />
</svg>
