<svg viewBox="0 0 200 200" fill="none" xmlns="http://www.w3.org/2000/svg">
	<path d="M175.306 100.408L175.253 100.47L175.248 100.476L100.126 188.306L100.126 188.306C100.055 188.39 99.9972 188.44 99.9579 188.469C99.9186 188.44 99.8612 188.39 99.7902 188.307L99.7898 188.306L24.6166 100.417C6.07115 78.7339 7.2269 42.511 27.8571 22.6217C45.2883 5.82623 71.5143 8.57338 87.9729 27.8164L89.8517 26.2095L87.9729 27.8165L96.6957 38.0147C96.6957 38.0148 96.6958 38.0148 96.6958 38.0148C97.5239 38.983 98.7338 39.5398 100.007 39.5398C101.281 39.5398 102.49 38.9822 103.318 38.0148C103.318 38.0148 103.318 38.0148 103.318 38.0147L112.041 27.8165L110.329 26.3524L112.041 27.8164C128.59 8.46809 154.714 5.82068 172.151 22.6164C192.794 42.6263 193.936 78.7338 175.306 100.408Z" stroke="" stroke-width="20"/>
</svg>
