<svg viewBox="0 0 200 200" fill="none" xmlns="http://www.w3.org/2000/svg">
  <path fill-rule="evenodd" clip-rule="evenodd" d="M50 100C50 104.42 48.2441 108.66 45.1185 111.785C41.9928 114.911 37.7536 116.667 33.3333 116.667C28.9131 116.667 24.6738 114.911 21.5482 111.785C18.4226 108.66 16.6667 104.42 16.6667 100C16.6667 95.5797 18.4226 91.3405 21.5482 88.2149C24.6738 85.0893 28.9131 83.3333 33.3333 83.3333C37.7536 83.3333 41.9928 85.0893 45.1185 88.2149C48.2441 91.3405 50 95.5797 50 100ZM116.667 100C116.667 104.42 114.911 108.66 111.785 111.785C108.66 114.911 104.42 116.667 100 116.667C95.5797 116.667 91.3405 114.911 88.2149 111.785C85.0893 108.66 83.3333 104.42 83.3333 100C83.3333 95.5797 85.0893 91.3405 88.2149 88.2149C91.3405 85.0893 95.5797 83.3333 100 83.3333C104.42 83.3333 108.66 85.0893 111.785 88.2149C114.911 91.3405 116.667 95.5797 116.667 100ZM166.667 116.667C171.087 116.667 175.326 114.911 178.452 111.785C181.577 108.66 183.333 104.42 183.333 100C183.333 95.5797 181.577 91.3405 178.452 88.2149C175.326 85.0893 171.087 83.3333 166.667 83.3333C162.246 83.3333 158.007 85.0893 154.882 88.2149C151.756 91.3405 150 95.5797 150 100C150 104.42 151.756 108.66 154.882 111.785C158.007 114.911 162.246 116.667 166.667 116.667Z" />
</svg>
