<svg viewBox="0 0 199 150" fill="none" xmlns="http://www.w3.org/2000/svg">
  <path d="M182.376 32.4516C171.515 21.5762 156.42 14.8242 139.83 14.8273H118.414L122.792 4.42109C123.24 3.35703 122.971 2.13086 122.122 1.35312C121.273 0.575778 120.029 0.414062 119.006 0.952343L82.5133 20.2453C81.616 20.7148 81.0602 21.6445 81.0602 22.6523C81.0602 23.6633 81.6164 24.593 82.5133 25.0598L119.006 44.3555C120.023 44.8938 121.266 44.7324 122.122 43.9578C122.971 43.1805 123.241 41.9516 122.792 40.8898L118.408 30.4715H139.83C152.15 30.4777 163.232 35.4445 171.312 43.5152C179.385 51.5949 184.349 62.6797 184.355 74.9996C184.349 87.3199 179.385 98.4016 171.312 106.484C163.232 114.555 152.15 119.522 139.83 119.528V135.173C156.42 135.176 171.515 128.424 182.375 117.548C193.254 106.685 200.006 91.593 200 75C200.006 58.407 193.254 43.3152 182.376 32.4516Z" />
  <path d="M117.487 124.94L80.9941 105.644C79.9777 105.106 78.7336 105.268 77.8781 106.042C77.0289 106.819 76.7598 108.048 77.2086 109.11L81.5922 119.528H60.1699C47.8504 119.522 36.7684 114.555 28.6887 106.484C20.6148 98.4016 15.6512 87.3199 15.6453 75C15.6516 62.6805 20.6152 51.5953 28.6887 43.5156C36.7684 35.4449 47.8504 30.4781 60.1699 30.4719V14.8273C43.5801 14.8242 28.4856 21.5762 17.6246 32.4516C6.7461 43.3152 -0.00585556 58.407 3.8105e-06 75C-0.00585556 91.593 6.7461 106.685 17.6246 117.548C28.4852 128.424 43.5801 135.176 60.1699 135.173H81.5863L77.2086 145.579C76.7602 146.644 77.0293 147.87 77.8781 148.647C78.7273 149.425 79.9715 149.586 80.9941 149.048L117.487 129.755C118.384 129.285 118.94 128.355 118.94 127.347C118.941 126.337 118.384 125.407 117.487 124.94Z" />
</svg>
