<svg viewBox="0 0 200 168" fill="none" xmlns="http://www.w3.org/2000/svg">
	<path d="M161.005 90.341L199.461 128.953L161.005 167.565L149.453 155.966L168.186 137.156H155.229C136.07 137.156 118.497 123.195 100.474 106.37C104.542 102.613 108.513 98.823 112.402 95.0988C127.647 109.266 142.1 120.75 155.229 120.75H168.186L149.453 101.94L161.005 90.341ZM155.229 46.9219H168.186L149.453 65.7316L161.005 77.3309L199.461 38.7188L161.005 0.106644L149.453 11.7059L168.186 30.5156H155.229C132.459 30.5156 111.936 50.1785 90.2206 71.0063C68.9052 91.4238 46.8627 112.547 24.5098 112.547H0V128.953H24.5098C53.4069 128.953 77.8513 105.525 101.503 82.868C120.784 64.3863 139.011 46.9219 155.229 46.9219ZM64.0768 73.057C68.1618 69.3738 72.2059 65.5594 76.1765 61.7613C60.1634 48.6281 43.2761 38.7188 24.5098 38.7188H0V55.125H24.5098C37.8431 55.125 51.0621 62.6637 64.0768 73.057Z"

	/>
</svg>
