<?xml version="1.0" encoding="utf-8"?><!-- Uploaded to: SVG Repo, www.svgrepo.com, Generator: SVG Repo Mixer Tools -->
<svg fill="#000000" width="800px" height="800px" viewBox="0 0 24 24" id="fast-backward" data-name="Flat Color" xmlns="http://www.w3.org/2000/svg" class="icon flat-color"><path id="primary" d="M21.47,5.12a1,1,0,0,0-1,0l-7.45,5V6a1,1,0,0,0-.53-.88,1,1,0,0,0-1,0l-9,6a1,1,0,0,0,0,1.66l9,6A1,1,0,0,0,13,18V13.87l7.45,5A1,1,0,0,0,22,18V6A1,1,0,0,0,21.47,5.12Z" style="fill: rgb(0, 0, 0);"></path></svg>