<?xml version="1.0" encoding="utf-8"?>

<!DOCTYPE svg PUBLIC "-//W3C//DTD SVG 1.1//EN" "http://www.w3.org/Graphics/SVG/1.1/DTD/svg11.dtd">
<!-- Uploaded to: SVG Repo, www.svgrepo.com, Generator: SVG Repo Mixer Tools -->
<svg height="800px" width="800px" version="1.1" id="_x32_" xmlns="http://www.w3.org/2000/svg" xmlns:xlink="http://www.w3.org/1999/xlink" 
	 viewBox="0 0 512 512"  xml:space="preserve">
<style type="text/css">
	.st0{fill:#000000;}
</style>
<g>
	<path class="st0" d="M466.882,147.076c-27.803-27.841-66.446-45.126-108.916-45.118H303.14l11.207-26.64
		c1.148-2.724,0.459-5.863-1.715-7.854c-2.174-1.99-5.359-2.404-7.976-1.026l-93.422,49.39c-2.297,1.202-3.72,3.582-3.72,6.162
		c0,2.588,1.424,4.968,3.72,6.163l93.422,49.397c2.602,1.378,5.786,0.965,7.976-1.018c2.174-1.99,2.864-5.136,1.715-7.854
		l-11.222-26.671h54.84c31.539,0.016,59.908,12.731,80.593,33.392c20.668,20.684,33.376,49.061,33.391,80.6
		c-0.016,31.54-12.723,59.909-33.391,80.601c-20.684,20.66-49.054,33.376-80.593,33.391v40.051
		c42.47,0.008,81.113-17.277,108.916-45.119C494.73,337.113,512.016,298.478,512,256
		C512.016,213.522,494.73,174.887,466.882,147.076z"/>
	<path class="st0" d="M300.767,383.847l-93.422-49.398c-2.602-1.377-5.787-0.964-7.977,1.018c-2.174,1.99-2.863,5.137-1.714,7.854
		l11.222,26.67h-54.841c-31.538-0.015-59.908-12.73-80.592-33.391C52.774,315.908,40.067,287.539,40.052,256
		c0.016-31.538,12.723-59.916,33.391-80.6c20.684-20.661,49.054-33.376,80.592-33.392v-40.05
		c-42.47-0.008-81.112,17.277-108.916,45.118C17.27,174.887-0.015,213.522,0,256c-0.015,42.478,17.27,81.113,45.119,108.924
		c27.803,27.842,66.446,45.127,108.916,45.119h54.826l-11.207,26.639c-1.148,2.726-0.459,5.864,1.714,7.855
		c2.174,1.99,5.359,2.403,7.977,1.025l93.422-49.39c2.296-1.203,3.72-3.583,3.72-6.163
		C304.488,387.422,303.063,385.041,300.767,383.847z"/>
</g>
</svg>