<?xml version="1.0" encoding="utf-8"?><!-- Uploaded to: SVG Repo, www.svgrepo.com, Generator: SVG Repo Mixer Tools -->
<svg version="1.1" id="Uploaded to svgrepo.com" xmlns="http://www.w3.org/2000/svg" xmlns:xlink="http://www.w3.org/1999/xlink" 
	 width="800px" height="800px" viewBox="0 0 32 32" xml:space="preserve">
<style type="text/css">
	.linesandangles_een{fill:#111918;}
</style>
<path class="linesandangles_een" d="M23.707,16.293L28.414,21l-4.707,4.707l-1.414-1.414L24.586,22H23
	c-2.345,0-4.496-1.702-6.702-3.753c0.498-0.458,0.984-0.92,1.46-1.374C19.624,18.6,21.393,20,23,20h1.586l-2.293-2.293
	L23.707,16.293z M23,11h1.586l-2.293,2.293l1.414,1.414L28.414,10l-4.707-4.707l-1.414,1.414L24.586,9H23
	c-2.787,0-5.299,2.397-7.957,4.936C12.434,16.425,9.736,19,7,19H4v2h3c3.537,0,6.529-2.856,9.424-5.618
	C18.784,13.129,21.015,11,23,11z M11.843,14.186c0.5-0.449,0.995-0.914,1.481-1.377C11.364,11.208,9.297,10,7,10H4v2h3
	C8.632,12,10.25,12.919,11.843,14.186z"/>
</svg>